<!DOCTYPE svg PUBLIC "-//W3C//DTD SVG 1.1//EN" "http://www.w3.org/Graphics/SVG/1.1/DTD/svg11.dtd">
<!-- Uploaded to: SVG Repo, www.svgrepo.com, Transformed by: SVG Repo Mixer Tools -->
<svg fill="#644536" width="800px" height="800px" viewBox="-9 0 32 32" version="1.1" xmlns="http://www.w3.org/2000/svg">
<g id="SVGRepo_bgCarrier" stroke-width="0"/>
<g id="SVGRepo_tracerCarrier" stroke-linecap="round" stroke-linejoin="round"/>
<g id="SVGRepo_iconCarrier"> <title>moon</title> <path d="M7.52 23.56c-4.080 0-7.48-3.4-7.48-7.56s3.4-7.56 7.56-7.56c0.76 0 1.52 0.12 2.28 0.36 0.36 0.12 0.6 0.48 0.6 0.88-0.040 0.4-0.32 0.72-0.72 0.76-2.2 0.32-3.84 2.2-3.84 4.4 0 2.44 2 4.44 4.44 4.44 1 0 1.96-0.32 2.76-0.96 0.32-0.24 0.76-0.24 1.040 0 0.32 0.24 0.4 0.68 0.24 1.040-1.36 2.56-3.96 4.2-6.88 4.2zM6.24 10.28c-2.6 0.6-4.52 2.96-4.52 5.72 0 3.24 2.64 5.88 5.88 5.88 1.16 0 2.28-0.32 3.2-0.96-0.16 0-0.32 0-0.48 0-3.36 0-6.12-2.76-6.12-6.12-0.080-1.76 0.72-3.4 2.040-4.52z"/> </g>
</svg>