<!DOCTYPE svg PUBLIC "-//W3C//DTD SVG 1.1//EN" "http://www.w3.org/Graphics/SVG/1.1/DTD/svg11.dtd">
<!-- Uploaded to: SVG Repo, www.svgrepo.com, Transformed by: SVG Repo Mixer Tools -->
<svg width="800px" height="800px" viewBox="0 0 24 24" fill="none" xmlns="http://www.w3.org/2000/svg">
<g id="SVGRepo_bgCarrier" stroke-width="0"/>
<g id="SVGRepo_tracerCarrier" stroke-linecap="round" stroke-linejoin="round"/>
<g id="SVGRepo_iconCarrier"> <path d="M12 6.48387C8.95353 6.48387 6.48387 8.95353 6.48387 12C6.48387 15.0465 8.95353 17.5161 12 17.5161C15.0465 17.5161 17.5161 15.0465 17.5161 12C17.5161 8.95353 15.0465 6.48387 12 6.48387Z" fill="rgb(209, 182, 225)"/> <path fill-rule="evenodd" clip-rule="evenodd" d="M12 3C12.481 3 12.871 3.38995 12.871 3.87097V3.93775C12.871 4.41877 12.481 4.80872 12 4.80872C11.519 4.80872 11.129 4.41877 11.129 3.93775V3.87097C11.129 3.38995 11.519 3 12 3ZM5.57766 5.57768C5.91779 5.23755 6.46926 5.23755 6.80939 5.57768L6.91499 5.68328C7.25512 6.02341 7.25512 6.57488 6.91499 6.91501C6.57485 7.25515 6.02339 7.25515 5.68325 6.91501L5.57766 6.80942C5.23752 6.46928 5.23752 5.91781 5.57766 5.57768ZM18.4224 5.57768C18.7625 5.91782 18.7625 6.46928 18.4224 6.80942L18.3168 6.91501C17.9766 7.25515 17.4252 7.25515 17.085 6.91501C16.7449 6.57488 16.7449 6.02341 17.085 5.68328L17.1906 5.57768C17.5308 5.23755 18.0822 5.23755 18.4224 5.57768ZM3 12C3 11.519 3.38995 11.129 3.87097 11.129H3.93775C4.41877 11.129 4.80872 11.519 4.80872 12C4.80872 12.481 4.41877 12.871 3.93775 12.871H3.87097C3.38995 12.871 3 12.481 3 12ZM19.1913 12C19.1913 11.519 19.5813 11.129 20.0623 11.129H20.129C20.6101 11.129 21 11.519 21 12C21 12.481 20.6101 12.871 20.129 12.871H20.0623C19.5813 12.871 19.1913 12.481 19.1913 12ZM17.085 17.0851C17.4251 16.7449 17.9765 16.7449 18.3167 17.085L18.4223 17.1905C18.7624 17.5306 18.7625 18.0821 18.4224 18.4223C18.0823 18.7624 17.5308 18.7625 17.1906 18.4224L17.0851 18.3168C16.7449 17.9767 16.7449 17.4253 17.085 17.0851ZM6.91492 17.085C7.2551 17.4251 7.25516 17.9765 6.91506 18.3167L6.80949 18.4223C6.4694 18.7625 5.91793 18.7625 5.57776 18.4225C5.23759 18.0824 5.23752 17.5309 5.57762 17.1907L5.68319 17.0851C6.02328 16.7449 6.57475 16.7449 6.91492 17.085ZM12 19.1913C12.481 19.1913 12.871 19.5813 12.871 20.0623V20.129C12.871 20.6101 12.481 21 12 21C11.519 21 11.129 20.6101 11.129 20.129V20.0623C11.129 19.5813 11.519 19.1913 12 19.1913Z" fill="rgb(209, 182, 225)"/> </g>
</svg>